<svg width="75" height="75" viewBox="0 0 75 75" fill="none" xmlns="http://www.w3.org/2000/svg">
<path d="M18.6675 44.5289C20.4412 40.5882 20.4412 34.4141 18.6675 30.4728C17.1425 27.0866 14.9665 26.5811 13.8049 26.5811C12.6427 26.5811 10.4666 27.0869 8.94354 30.4728C7.16923 34.4141 7.16923 40.5879 8.94291 44.5286C10.4666 47.9152 12.6427 48.421 13.8049 48.421C14.9665 48.421 17.1428 47.9155 18.6675 44.5289ZM13.2068 32.3917C13.4349 31.884 13.6519 31.5717 13.8052 31.3972C13.9592 31.5721 14.1761 31.8843 14.4048 32.392C15.6297 35.1135 15.6297 39.8888 14.4048 42.61C14.1761 43.118 13.9592 43.4303 13.8052 43.6051C13.6519 43.43 13.4349 43.1177 13.2068 42.61C11.9813 39.8882 11.9813 35.1138 13.2068 32.3917Z" fill="#80C825"/>
<path d="M67.1504 24.7631C67.1498 24.7631 67.1492 24.7631 67.1479 24.7631C65.0507 24.7631 63.0791 25.5796 61.5968 27.0622C60.4219 28.2372 59.6655 29.7182 59.4018 31.3264H55.894C54.8166 29.1105 53.1255 27.76 51.1174 27.76H48.6119C44.7105 18.4319 35.5641 12.2759 25.3455 12.2759H13.8058C13.7388 12.2759 13.6724 12.2806 13.6073 12.2859C9.69746 12.3787 6.15725 15.2024 3.62311 20.2732C-1.2077 29.9339 -1.2077 45.0696 3.62311 54.73C6.19995 59.8846 9.81558 62.7235 13.804 62.7242C13.8046 62.7242 13.8052 62.7242 13.8052 62.7242C13.8077 62.7242 13.8102 62.7239 13.8117 62.7239H25.3452C35.5638 62.7239 44.7105 56.5691 48.6116 47.2422H51.1171C53.1258 47.2422 54.8175 45.8905 55.8949 43.673L59.403 43.6727C60.0198 47.3921 63.2586 50.2373 67.1495 50.2373C71.4782 50.2373 74.9997 46.7146 74.9997 42.3849C74.9997 40.5738 74.382 38.8634 73.2952 37.4999C74.3817 36.1357 74.9997 34.4253 74.9997 32.6136C75 28.2849 71.4785 24.7631 67.1504 24.7631ZM7.8044 52.639C3.63027 44.2923 3.63027 30.7109 7.8044 22.3635C9.52355 18.9243 11.7105 16.9518 13.8046 16.9518C15.8993 16.9518 18.0869 18.9243 19.8066 22.3639C23.9795 30.7096 23.9795 44.2907 19.8066 52.6377C18.0881 56.0735 15.903 58.0454 13.8108 58.0486H13.8058C13.8046 58.0486 13.804 58.0489 13.8027 58.0489C11.7086 58.0473 9.52292 56.076 7.8044 52.639ZM51.0174 42.5672H46.9997C46.0002 42.5672 45.1113 43.2027 44.7881 44.1483C41.9448 52.4626 34.1314 58.0489 25.3449 58.0489H21.9456C22.6802 57.0812 23.3652 55.9741 23.9879 54.7287C28.8175 45.0677 28.8175 29.933 23.9879 20.2735C23.3646 19.0272 22.6799 17.9192 21.9443 16.9509H25.3452C34.1314 16.9509 41.9451 22.5381 44.7884 30.8536C45.1116 31.7992 46.0005 32.4347 47 32.4347H51.0177C51.4846 32.7448 52.4822 34.5066 52.4822 37.5011C52.4822 40.4953 51.4842 42.2571 51.0174 42.5672ZM68.6149 39.5706C69.6699 40.1228 70.3247 41.2015 70.3247 42.3849C70.3247 44.1371 68.9004 45.5623 67.1495 45.5623C65.3976 45.5623 63.972 44.1365 63.972 42.3837C63.972 42.1895 63.9926 41.986 64.0328 41.7784C64.165 41.0934 63.9842 40.3849 63.5404 39.847C63.096 39.3088 62.4349 38.9974 61.7374 38.9974L57.0948 38.998C57.1357 38.5128 57.1569 38.0138 57.1569 37.5011C57.1569 36.9875 57.1357 36.4876 57.0948 36.0011H61.7374C62.4355 36.0011 63.0966 35.6891 63.541 35.1505C63.9848 34.612 64.165 33.9036 64.0322 33.2185C63.992 33.0097 63.972 32.8121 63.972 32.6145C63.972 31.7655 64.3027 30.9677 64.9021 30.3677C65.5017 29.7681 66.2989 29.438 67.1488 29.438H67.1495C68.9001 29.438 70.3247 30.8626 70.3247 32.6136C70.3247 33.7979 69.6696 34.8769 68.6149 35.4292C67.8448 35.8328 67.362 36.6303 67.362 37.4999C67.3623 38.3694 67.8451 39.167 68.6149 39.5706Z" fill="#80C825"/>
</svg>
