<svg width="75" height="75" viewBox="0 0 75 75" fill="none" xmlns="http://www.w3.org/2000/svg">
<path d="M0 16.8326C0 18.3304 1.21364 19.544 2.71143 19.544H11.2094C7.32448 25.7344 6.98899 32.4717 10.858 36.3397C10.9979 36.4796 11.153 36.6036 11.3193 36.7099L70.8323 74.5763C71.2799 74.8608 71.7853 75 72.2868 75C72.9874 75 73.6815 74.7292 74.2054 74.2061C75.1038 73.3074 75.2578 71.9054 74.5756 70.8331L36.7092 11.3193C36.6025 11.1523 36.4781 10.9972 36.3386 10.8577C34.5483 9.06775 32.0802 8.12164 29.2018 8.12164C26.0988 8.12164 22.7135 9.23839 19.5436 11.2224L19.544 2.71143C19.544 1.214 18.3304 0 16.8326 0C15.3351 0 14.1211 1.214 14.1211 2.71143L14.1208 10.2861L8.76515 4.93083C7.70589 3.87229 5.98937 3.87229 4.93047 4.93083C3.87156 5.99009 3.87156 7.70661 4.93047 8.76552L10.2857 14.1211H2.71143C1.214 14.1211 0 15.3348 0 16.8326ZM29.2018 13.5445C30.5184 13.5445 31.565 13.8724 32.3174 14.5192L42.568 30.6298L36.5982 36.5989C35.5389 37.6578 35.5389 39.3747 36.5978 40.4332C37.1274 40.9629 37.8212 41.2275 38.5153 41.2275C39.2091 41.2275 39.9032 40.9629 40.4325 40.4336L45.5499 35.3162L63.4529 63.4533L48.916 54.2037L51.5602 51.5602C52.6191 50.5017 52.6195 48.7848 51.5606 47.7259C50.502 46.667 48.7852 46.6666 47.7263 47.7255L44.2292 51.2218L21.716 36.8968L29.3051 29.3062C30.3641 28.2473 30.3641 26.5305 29.3048 25.4719C28.2462 24.4134 26.5294 24.413 25.4701 25.4723L17.0285 33.9146L14.5217 32.3199C12.4588 29.8934 13.6374 23.8649 18.749 18.7508C21.9608 15.5394 25.9661 13.5445 29.2018 13.5445Z" fill="#80C825"/>
</svg>
