<svg width="75" height="75" viewBox="0 0 75 75" fill="none" xmlns="http://www.w3.org/2000/svg">
<path d="M5.06524 20.9734C5.17816 21.8112 5.70311 22.5365 6.46364 22.9051C7.22485 23.2738 8.11881 23.2365 8.84675 22.8063C9.78036 22.2535 10.3534 22.1712 10.6118 22.1712C10.8424 22.1712 11.0474 22.2232 11.2964 22.4777C11.8963 23.0913 12.3288 24.4679 12.3016 25.7097C12.2703 28.8405 11.8613 30.7995 11.4288 32.8731C10.9744 35.0495 10.5049 37.2999 10.4347 40.8273C10.4344 40.8441 10.434 40.8609 10.434 40.8774C10.434 52.9952 19.709 61.3692 33.7919 62.3179V69.9582H30.4862C29.0939 69.9582 27.9657 71.0864 27.9657 72.4788C27.9657 73.8711 29.0939 74.9993 30.4862 74.9993H42.1393C43.5316 74.9993 44.6598 73.8711 44.6598 72.4788C44.6598 71.0864 43.5316 69.9582 42.1393 69.9582H38.833V62.3303C54.333 61.3635 61.0875 50.9045 63.7035 46.8464C65.8416 43.53 66.4411 41.4531 65.7733 39.6783C65.693 39.4649 65.5986 39.2689 65.4921 39.0885C67.1644 37.159 67.7044 35.2948 67.0982 33.5241C66.838 32.7639 66.3675 32.1028 65.7377 31.5708C71.4325 24.7996 69.8812 20.5156 69.4601 19.6392C69.1321 18.9573 68.515 18.4582 67.7797 18.2808C67.0447 18.105 66.2681 18.2656 65.6648 18.7227C56.4429 25.7184 48.6588 29.266 42.5288 29.266C35.031 29.266 32.4587 23.6983 31.7008 21.3041C29.9693 15.8368 28.1969 12.3359 27.1551 10.5373C28.29 8.22676 27.9149 6.43952 27.3187 5.27603C26.2604 3.21018 23.9815 2.18079 22.1314 2.03224C20.9817 0.723904 19.4969 0 17.8868 0C16.0485 0 14.3456 0.953779 13.3041 2.4362C10.0748 2.63986 8.9069 4.60422 8.54663 5.47499C7.88154 7.08075 8.13427 8.88412 8.84238 10.3783C8.22635 11.4904 7.86776 12.8461 7.78341 14.1481C4.67136 17.2288 5.0108 20.5711 5.06524 20.9734ZM11.8754 17.248C12.5415 16.719 12.8961 15.8899 12.8181 15.0427C12.7187 13.9666 13.1051 12.9983 13.3165 12.6999C13.9332 12.3175 14.359 11.685 14.4763 10.9617C14.606 10.1615 14.3432 9.3479 13.7702 8.7749C13.4436 8.44857 13.2244 7.85305 13.2036 7.52571C13.3233 7.49445 13.5309 7.45984 13.8586 7.45984C14.0727 7.45984 14.3113 7.47496 14.5674 7.50521C15.8374 7.65443 17.0197 6.82836 17.3148 5.58286C17.3867 5.28309 17.6862 5.04111 17.8868 5.04111C18.0616 5.04111 18.396 5.313 18.7179 5.90886C19.0792 6.57832 19.7238 7.04882 20.4716 7.18896C20.9323 7.27567 21.4011 7.23064 21.829 7.06898C22.2151 7.12981 22.7327 7.38053 22.8328 7.57578C22.8594 7.62788 22.8479 8.12963 22.1536 9.0945C21.5208 9.97367 21.5278 11.1688 22.1603 12.0483C22.1839 12.0812 24.5488 15.4167 26.8956 22.8268C29.1715 30.0161 35.0162 34.3081 42.5294 34.3081C48.4188 34.3081 55.3335 31.7429 63.1399 26.6712C62.338 27.8521 61.1816 29.2358 59.5183 30.816C58.7662 31.5308 58.5289 32.6331 58.9201 33.5943C59.3069 34.5444 60.2305 35.1641 61.2542 35.1641C61.2659 35.1641 61.2773 35.1641 61.2891 35.1638L61.3331 35.1634C61.6403 35.1634 61.8998 35.2055 62.096 35.2575C61.8383 35.6581 61.2535 36.3663 59.9445 37.3815C59.194 37.9633 58.8341 38.9181 59.0139 39.8507C59.192 40.7742 59.8692 41.5206 60.7692 41.7888C60.5699 42.2539 60.1905 42.993 59.4669 44.1155C56.9104 48.0818 50.9229 57.3695 36.5033 57.3695C23.7395 57.3695 15.4889 50.9072 15.4758 40.9026C15.5387 37.8598 15.9396 35.9378 16.3644 33.9032C16.8278 31.6827 17.3071 29.3863 17.3427 25.7907C17.3881 23.7383 16.77 20.8642 14.9005 18.9526C14.0391 18.0724 13.005 17.4984 11.8633 17.2581C11.867 17.2551 11.8711 17.2517 11.8754 17.248Z" fill="#80C825"/>
<path d="M18.1163 16.7224C19.2569 16.7224 20.1845 15.8003 20.1845 14.6667C20.1845 13.5264 19.2566 12.5981 18.1163 12.5981C16.9743 12.5981 16.0447 13.5264 16.0447 14.6667C16.0447 15.8003 16.9743 16.7224 18.1163 16.7224Z" fill="#80C825"/>
</svg>
