<svg width="75" height="75" viewBox="0 0 75 75" fill="none" xmlns="http://www.w3.org/2000/svg">
<g clip-path="url(#clip0)">
<path d="M21.5927 27.5507C20.8228 27.8934 20.4767 28.7958 20.8197 29.5655C21.9287 32.0551 22.4909 34.7373 22.4909 37.537C22.4909 40.3193 21.9367 42.9838 20.8432 45.456C20.5024 46.2266 20.8506 47.1281 21.6214 47.4683C21.8219 47.5571 22.0316 47.5996 22.2379 47.5996C22.8235 47.5996 23.382 47.2605 23.6341 46.6904C24.9005 43.827 25.5429 40.7471 25.5429 37.537C25.5429 34.3064 24.8917 31.207 23.6078 28.324C23.2645 27.5544 22.363 27.2074 21.5927 27.5507Z" fill="#80C825"/>
<path d="M73.4537 19.6048C72.5302 19.2895 71.5042 19.5935 70.9043 20.3653L60.3507 33.9456C56.048 29.371 44.8511 19.0576 31.366 19.0576C14.4071 19.0576 1.06662 35.3708 0.506927 36.0651C-0.168732 36.9031 -0.168732 38.0988 0.506927 38.9374C1.06662 39.6317 14.4065 55.9433 31.3678 55.9421L31.3681 53.6533V55.9421C44.802 55.9421 55.9653 45.705 60.3022 41.106L70.904 54.7482C71.3459 55.3168 72.0182 55.632 72.7115 55.632C72.9596 55.632 73.2102 55.5921 73.4537 55.5087C74.3787 55.1911 75 54.3213 75 53.3432V21.7703C75 20.7922 74.3787 19.9225 73.4537 19.6048ZM31.3678 51.3648H31.3666C19.3473 51.3654 8.87515 41.3089 5.34152 37.5012C8.87576 33.6926 19.3479 23.6353 31.3657 23.6353C43.3832 23.6353 53.8559 33.6923 57.3899 37.5C53.8547 41.3092 43.3829 51.3648 31.3678 51.3648ZM70.4224 46.6684L63.3414 37.5568L70.4224 28.4454V46.6684Z" fill="#80C825"/>
<path d="M15.5747 38.5176C17.0262 38.5176 18.2029 37.3409 18.2029 35.8894C18.2029 34.4379 17.0262 33.2612 15.5747 33.2612C14.1232 33.2612 12.9465 34.4379 12.9465 35.8894C12.9465 37.3409 14.1232 38.5176 15.5747 38.5176Z" fill="#80C825"/>
<path d="M43.9725 35.799L35.5857 31.5454C34.6463 31.069 33.4979 31.4447 33.0219 32.384C32.5452 33.3234 32.9209 34.4714 33.8602 34.9475L38.8928 37.4997L33.8602 40.0519C32.9209 40.528 32.5452 41.676 33.0219 42.6154C33.3582 43.2782 34.0286 43.6603 34.7245 43.6603C35.0147 43.6603 35.3092 43.5941 35.5857 43.454L43.9725 39.2005C44.6134 38.8757 45.0171 38.2181 45.0171 37.4994C45.0171 36.7819 44.6134 36.1243 43.9725 35.799Z" fill="#80C825"/>
</g>
<defs>
<clipPath id="clip0">
<rect width="75" height="75" fill="white"/>
</clipPath>
</defs>
</svg>
